<svg width="27" height="22" viewBox="0 0 27 22" fill="none" xmlns="http://www.w3.org/2000/svg">
<path d="M25.74 5.4265C24.5109 5.603 23.2164 5.22729 22.2674 4.29021C21.3351 3.34236 20.961 2.05107 21.1367 0.823938C21.1773 0.543846 21.2454 0.268139 21.3438 0C21.0465 0.0235271 20.7518 0.0736618 20.4633 0.149805C19.6306 0.368591 18.8709 0.80442 18.2617 1.4128C17.6003 2.0742 17.1435 2.91218 16.9461 3.82644C15.7898 3.31184 14.5382 3.04645 13.2726 3.04753C9.40036 3.04753 5.91616 5.57471 4.69699 9.22824C2.08614 9.35056 0 11.5132 0 14.1539C0 16.8724 2.21164 19.0844 4.93047 19.0844C5.65439 19.0842 6.36942 18.9249 7.02497 18.6178C8.70266 20.2335 10.9431 21.1331 13.2722 21.1263C17.044 21.1309 20.4208 18.789 21.7383 15.2548C21.82 15.2635 21.8992 15.2687 21.9789 15.2687C23.3174 15.267 24.402 14.1824 24.4037 12.8439C24.4026 12.3473 24.248 11.8632 23.9611 11.4578C24.2522 10.9352 24.4046 10.3468 24.4037 9.74858C24.4028 9.48609 24.3724 9.22454 24.3129 8.96887C24.6159 8.77775 24.8969 8.55382 25.1508 8.30112C25.7596 7.69242 26.1955 6.93266 26.4138 6.09984C26.4903 5.80978 26.5409 5.51575 26.564 5.21893C26.2962 5.31774 26.0197 5.38586 25.74 5.4265ZM24.5882 7.73814C24.4181 7.90628 24.2338 8.05932 24.0372 8.19553C23.4622 7.03612 22.2686 6.23529 20.8896 6.23529C20.6669 6.23529 20.4414 6.25801 20.2167 6.30263C19.5088 5.45255 18.6514 4.73919 17.6867 4.19777C17.8244 3.35652 18.2226 2.57965 18.825 1.97657C19.2461 1.55654 19.7541 1.23371 20.3131 1.03071C20.2075 2.39132 20.6645 3.78699 21.6881 4.83524L21.6861 4.83683L21.7044 4.85317C21.7124 4.86114 21.718 4.86951 21.7263 4.87708L21.7287 4.87508C22.7766 5.89863 24.1734 6.35482 25.5336 6.25004C25.3307 6.80903 25.008 7.31692 24.5882 7.73814Z" fill="#DC0000"/>
</svg>
