<svg width="25" height="21" viewBox="0 0 25 21" fill="none" xmlns="http://www.w3.org/2000/svg">
<path fill-rule="evenodd" clip-rule="evenodd" d="M17.204 4C13.867 4 10.941 6.293 9.853 9.666C9.48316 9.57537 9.10379 9.52938 8.723 9.529C6.442 9.529 4.443 11.135 3.736 13.442C3.64784 13.435 3.55944 13.4313 3.471 13.431C1.556 13.43 0 15.129 0 17.216C0 19.302 1.557 21 3.47 21H17.203C21.503 21 25 17.187 25 12.499C25.001 7.812 21.504 4 17.204 4Z" fill="#0090FF"/>
<path fill-rule="evenodd" clip-rule="evenodd" d="M11.013 5.795C10.2152 6.73396 9.61456 7.82395 9.247 9C8.86268 8.90411 8.4681 8.85542 8.072 8.855C6.882 8.855 5.766 9.283 4.857 10.017C3.75537 8.31846 4.20843 6.05138 5.87826 4.9067C7.54809 3.76201 9.826 4.15698 11.013 5.797L11.013 5.795ZM7.466 2.134V0H8.533V2.134H7.466ZM0 8.534V7.466H2.134V8.532H0V8.534ZM12.681 4.072L11.927 3.319L13.279 1.966L14.033 2.72L12.681 4.072ZM4.072 3.318L3.318 4.072L1.965 2.72L2.72 1.966L4.072 3.318Z" fill="#0090FF"/>
</svg>
