<svg width="31" height="23" viewBox="0 0 31 23" fill="none" xmlns="http://www.w3.org/2000/svg">
<path d="M0 4.72363H10.22V5.48903H0V4.72363Z" fill="#5D50FE"/>
<path d="M30.3769 6.43701C30.3769 4.57594 28.8625 3.0616 27.0014 3.0616C26.7875 3.0616 26.5709 3.08341 26.3551 3.12627C24.6972 1.13623 22.2808 0 19.6854 0C16.8162 0.0013237 14.133 1.42013 12.5166 3.79064C12.065 4.45403 11.7081 5.17715 11.4562 5.93911C9.7889 6.01412 8.28455 6.96219 7.49753 8.43394C7.13007 9.12148 6.93765 9.88895 6.93726 10.6685C6.93726 13.2793 9.06162 15.4044 11.6732 15.4044C12.3689 15.4044 13.0589 15.2502 13.6854 14.9559C15.3088 16.5116 17.4286 17.3658 19.6861 17.3658C23.3092 17.3702 26.5528 15.1205 27.8181 11.7255C27.8966 11.7343 27.9727 11.7389 28.0489 11.7389C29.3346 11.7375 30.3765 10.6955 30.378 9.40982C30.377 8.93284 30.2286 8.46782 29.9532 8.07841C30.232 7.57634 30.3779 7.01131 30.3769 6.43701Z" fill="#5D50FE"/>
<path d="M0 2.47571H11.3015V3.2411H0V2.47571Z" fill="#5D50FE"/>
<path d="M0 7.08374H6.30345V7.84914H0V7.08374Z" fill="#5D50FE"/>
<path d="M15.2456 17.7542L14.9276 18.2275C14.7011 18.5659 13.5706 20.2918 13.5706 21.0813C13.5714 22.0062 14.3207 22.7559 15.2456 22.7572C16.1705 22.7559 16.9197 22.0062 16.9203 21.0813C16.9203 20.2918 15.7902 18.5659 15.5637 18.2275L15.2456 17.7542ZM15.2456 21.9918C14.7432 21.9911 14.3362 21.5838 14.336 21.0813C14.336 20.7515 14.799 19.8758 15.2456 19.1499C15.6922 19.8755 16.1549 20.7507 16.1549 21.0813C16.1549 21.5837 15.748 21.9911 15.2456 21.9918Z" fill="#5D50FE"/>
<path d="M19.0723 17.7542L18.755 18.2275C18.5281 18.5659 17.3972 20.2918 17.3972 21.0813C17.3983 22.0061 18.1475 22.7557 19.0723 22.7572C19.9972 22.7559 20.7465 22.0062 20.7474 21.0813C20.7474 20.2918 19.6173 18.5659 19.3899 18.2275L19.0723 17.7542ZM19.0723 21.9918C18.5699 21.9912 18.1628 21.5838 18.1626 21.0813C18.1626 20.7515 18.6261 19.8758 19.0723 19.1499C19.5193 19.8755 19.982 20.7507 19.982 21.0813C19.9818 21.5838 19.5747 21.9912 19.0723 21.9918Z" fill="#5D50FE"/>
<path d="M22.8992 17.7542L22.5819 18.2275C22.355 18.5659 21.2241 20.2918 21.2241 21.0813C21.2252 22.0061 21.9744 22.7557 22.8992 22.7572C23.8241 22.7559 24.5734 22.0062 24.5743 21.0813C24.5743 20.2918 23.4442 18.5659 23.2168 18.2275L22.8992 17.7542ZM22.8992 21.9918C22.3968 21.9911 21.9897 21.5838 21.9895 21.0813C21.9895 20.7515 22.453 19.8758 22.8992 19.1499C23.3462 19.8755 23.8089 20.7507 23.8089 21.0813C23.8087 21.5838 23.4016 21.9911 22.8992 21.9918Z" fill="#5D50FE"/>
</svg>
