<svg width="27" height="29" viewBox="0 0 27 29" fill="none" xmlns="http://www.w3.org/2000/svg">
<path d="M12.8584 0H14.1401V4.74181H12.8584V0Z" fill="#FFAE00"/>
<path d="M5.79663 8.13525L9.14953 11.4883L8.24367 12.3941L4.89077 9.04108L5.79663 8.13525Z" fill="#FFAE00"/>
<path d="M22.969 9.14819L23.8747 10.0542L20.5212 13.4066L19.6155 12.5006L22.969 9.14819Z" fill="#FFAE00"/>
<path d="M22.2583 13.5002H27.0001V14.7813H22.2583V13.5002Z" fill="#FFAE00"/>
<path d="M0 13.5002H4.74117V14.7813H0V13.5002Z" fill="#FFAE00"/>
<path d="M21.3744 14.1094C21.3744 14.0921 21.3769 14.0749 21.3769 14.0576H21.3718C21.3218 9.75643 17.8118 6.27197 13.4991 6.27197C9.18644 6.27197 5.67701 9.75643 5.62704 14.0576H5.6232C5.6232 14.071 5.62512 14.0838 5.62512 14.0973C5.62512 14.1146 5.62256 14.1319 5.62256 14.1492H5.62768C5.67764 18.4503 9.18772 21.9341 13.5004 21.9341C17.813 21.9341 21.3225 18.4503 21.3724 14.1492H21.3763C21.3763 14.1351 21.3744 14.1223 21.3744 14.1094Z" fill="#FFAE00"/>
<path d="M12.8591 23.4644H14.1408V28.2055H12.8591V23.4644Z" fill="#FFAE00"/>
<path d="M22.5969 24.7039L19.2454 21.3494L20.1517 20.444L23.5032 23.7984L22.5969 24.7039Z" fill="#FFAE00"/>
<path d="M4.40552 24.7046L3.4997 23.7987L6.85273 20.4458L7.75855 21.3517L4.40552 24.7046Z" fill="#FFAE00"/>
</svg>
