<svg width="31" height="18" viewBox="0 0 31 18" fill="none" xmlns="http://www.w3.org/2000/svg">
<path d="M0 4.72363H10.22V5.48903H0V4.72363Z" fill="#28E0AE"/>
<path d="M30.3769 6.43701C30.3769 4.57594 28.8625 3.0616 27.0014 3.0616C26.7875 3.0616 26.5709 3.08341 26.3551 3.12627C24.6972 1.13623 22.2808 0 19.6854 0C16.8162 0.0013237 14.133 1.42013 12.5166 3.79064C12.065 4.45403 11.7081 5.17715 11.4562 5.93911C9.7889 6.01412 8.28455 6.96219 7.49753 8.43394C7.13007 9.12148 6.93765 9.88895 6.93726 10.6685C6.93726 13.2793 9.06162 15.4044 11.6732 15.4044C12.3689 15.4044 13.0589 15.2502 13.6854 14.9559C15.3088 16.5116 17.4286 17.3658 19.6861 17.3658C23.3092 17.3702 26.5528 15.1205 27.8181 11.7255C27.8966 11.7343 27.9727 11.7389 28.0489 11.7389C29.3346 11.7375 30.3765 10.6955 30.378 9.40982C30.377 8.93284 30.2286 8.46782 29.9532 8.07841C30.232 7.57634 30.3779 7.01131 30.3769 6.43701Z" fill="#28E0AE"/>
<path d="M0 2.47571H11.3015V3.2411H0V2.47571Z" fill="#28E0AE"/>
<path d="M0 7.08374H6.30345V7.84914H0V7.08374Z" fill="#28E0AE"/>
</svg>
