<svg width="53" height="40" viewBox="0 0 53 40" fill="none" xmlns="http://www.w3.org/2000/svg">
<path d="M46.3176 2.02417C45.2915 2.02417 44.2942 2.32273 43.4342 2.88736C43.1555 3.07024 42.7899 3.04896 42.5343 2.83498C41.9057 2.3116 41.1137 2.02458 40.2957 2.02365C38.6593 2.01687 37.2397 3.15209 36.8865 4.74989C36.8074 5.09378 36.5018 5.33789 36.149 5.33914C36.0505 5.33914 35.9557 5.32029 35.8641 5.2831C35.4466 5.11297 35.0002 5.02546 34.5494 5.0254C32.6177 5.02713 31.0521 6.5925 31.05 8.52421C31.0501 8.65358 31.059 8.78034 31.0726 8.90604C33.2622 8.14131 35.6879 8.50078 37.5616 9.86769C39.0582 8.97869 40.7669 8.51002 42.5076 8.51112C45.2464 8.51112 47.7197 9.65452 49.4885 11.4851C50.7581 10.5235 51.5836 9.00294 51.5836 7.2902C51.5841 4.38692 49.2208 2.02417 46.3176 2.02417Z" stroke="white"/>
<path d="M19.3249 29.878L19.3605 29.6182C19.0117 29.6491 18.6602 29.669 18.3051 29.669C17.4435 29.669 16.5992 29.5689 15.7774 29.3919L15.7548 29.5543L14.0515 32.3711L16.0502 33.756L14.052 39.1393L19.7428 34.1022L16.8972 32.3711L19.3249 29.878Z" fill="white" stroke="white"/>
<path d="M36.4192 7.45728C36.4192 3.72068 33.3787 0.679644 29.6421 0.679644C28.5044 0.680136 27.3851 0.967465 26.3879 1.51506C25.5663 0.973071 24.6044 0.682719 23.6202 0.679642C21.5796 0.674552 19.7414 1.91227 18.9785 3.80501C18.6163 3.72271 18.2459 3.68125 17.8744 3.68139C15.112 3.6814 12.8645 5.92943 12.8645 8.69182C12.8645 9.05584 12.9054 9.41043 12.9803 9.75194C11.5935 10.6217 10.5555 11.95 10.0466 13.5058C9.39753 13.3121 8.72373 13.2136 8.04634 13.2136C4.16098 13.2136 1 16.3745 1 20.2599C1 24.1447 4.16098 27.3047 8.04634 27.3047C9.11745 27.3047 10.1681 27.0601 11.1277 26.5918C11.7283 28.1865 12.8877 29.5088 14.3903 30.3127L14.7486 29.7203L14.8276 29.1489C13.4604 28.3665 12.4702 27.0617 12.0846 25.5343C12.0145 25.2619 11.7694 25.0711 11.4881 25.0702C11.3728 25.0702 11.2581 25.1032 11.1581 25.1671C10.2287 25.76 9.14926 26.0751 8.04686 26.0754C4.83979 26.0754 2.23139 23.4675 2.23139 20.2599C2.23139 17.0523 4.83927 14.4439 8.04686 14.4439C8.79795 14.4439 9.53228 14.5879 10.2331 14.8729C10.4005 14.9407 10.5892 14.9316 10.7494 14.8482C10.9095 14.7647 11.025 14.6152 11.0654 14.4392C11.6559 11.785 14.0145 9.89975 16.7337 9.90855C18.0902 9.90855 19.4128 10.3883 20.4551 11.2573C20.6625 11.4312 20.96 11.4479 21.1863 11.2992C22.5662 10.3913 24.1819 9.9078 25.8337 9.90855C28.1189 9.90855 30.1926 10.821 31.7194 12.2959C32.0954 12.6573 32.4348 13.0543 32.7386 13.4807C33.7667 14.9134 34.3196 16.6324 34.3194 18.3958C34.3194 23.0752 30.5121 26.8815 25.8337 26.8815C25.0774 26.8815 24.3064 26.7741 23.5453 26.5593C23.268 26.4829 22.9744 26.6074 22.8367 26.86C22.311 27.8321 21.5189 28.6341 20.5535 29.1719L20.3514 30.639C21.7234 30.0856 22.8866 29.1146 23.6763 27.8635C24.3954 28.0275 25.1188 28.1123 25.8337 28.1123C31.1914 28.1123 35.5502 23.754 35.5502 18.3958C35.5502 16.3201 34.8903 14.3978 33.7762 12.8181C35.38 11.5762 36.4192 9.6388 36.4192 7.45728ZM32.813 11.6527C31.0442 9.82212 28.571 8.67872 25.8321 8.67872C24.0848 8.67872 22.3847 9.14645 20.8861 10.0353C19.0124 8.66838 16.5868 8.30891 14.3971 9.07365C14.3827 8.94687 14.3752 8.81941 14.3746 8.69182C14.3766 6.76011 15.9422 5.19474 17.8739 5.19301C18.3244 5.19301 18.7675 5.27995 19.1886 5.4507C19.394 5.53508 19.6263 5.52415 19.8229 5.42085C20.0198 5.31819 20.1612 5.13434 20.211 4.9175C20.5641 3.31958 21.9838 2.18427 23.6202 2.19126C24.4383 2.1921 25.2302 2.47912 25.8588 3.00258C26.1145 3.21639 26.48 3.23766 26.7587 3.05496C27.6148 2.49153 28.6172 2.19143 29.6421 2.19178C32.5453 2.19178 34.9086 4.55453 34.9086 7.45781C34.9081 9.17055 34.0826 10.6911 32.813 11.6527Z" fill="white" stroke="white"/>
</svg>
