<svg width="44" height="44" viewBox="0 0 44 44" fill="none" xmlns="http://www.w3.org/2000/svg">
<path d="M23.0664 34.0208L22.4952 34.8718C22.0883 35.4787 20.0571 38.578 20.0571 39.9974C20.0594 41.6584 21.4055 43.0041 23.0664 43.006C24.7271 43.0037 26.0727 41.6581 26.075 39.9974C26.075 38.5787 24.0445 35.4787 23.6376 34.8718L23.0664 34.0208ZM23.0664 41.6313C22.1643 41.6305 21.433 40.8996 21.4319 39.9974C21.4319 39.4036 22.2643 37.8316 23.0664 36.5276C23.8686 37.8309 24.7003 39.4029 24.7003 39.9974C24.6991 40.8993 23.9683 41.6302 23.0664 41.6313Z" fill="white" stroke="white"/>
<path d="M16.1929 34.0208L15.6217 34.8718C15.2148 35.4787 13.1836 38.578 13.1836 39.9974C13.1859 41.6584 14.5319 43.0041 16.1929 43.006C17.8535 43.0037 19.1992 41.6581 19.2015 39.9974C19.2015 38.5787 17.171 35.4787 16.7641 34.8718L16.1929 34.0208ZM16.1929 41.6313C15.2907 41.6305 14.5595 40.8996 14.5583 39.9974C14.5583 39.4036 15.3907 37.8316 16.1929 36.5276C16.995 37.8309 17.8267 39.4029 17.8267 39.9974C17.8256 40.8993 17.0948 41.6302 16.1929 41.6313Z" fill="white" stroke="white"/>
<path d="M29.9402 34.0208L29.369 34.8718C28.9621 35.4787 26.9309 38.578 26.9309 39.9974C26.9332 41.6584 28.2793 43.0041 29.9402 43.006C31.6008 43.0037 32.9465 41.6581 32.9488 39.9974C32.9488 38.5787 30.9183 35.4787 30.5114 34.8718L29.9402 34.0208ZM29.9402 41.6313C29.038 41.6305 28.3068 40.8996 28.3056 39.9974C28.3056 39.4036 29.138 37.8316 29.9402 36.5276C30.7423 37.8309 31.5741 39.4029 31.5741 39.9974C31.5729 40.8993 30.8421 41.6302 29.9402 41.6313Z" fill="white" stroke="white"/>
<path d="M42.6811 12.3744C42.6811 9.03104 39.9612 6.31183 36.6185 6.31183C36.2343 6.31183 35.8452 6.35101 35.4569 6.428C32.4792 2.85371 28.1392 0.812927 23.4782 0.812927C16.7977 0.812927 10.7867 5.17287 8.6834 11.4767C4.17911 11.6877 0.580078 15.4187 0.580078 19.9739C0.580078 24.6637 4.39563 28.48 9.0862 28.48C10.3351 28.4797 11.5687 28.2049 12.6997 27.6751C15.6161 30.4692 19.4235 32.0027 23.4775 32.0027C29.985 32.0107 35.8107 27.9701 38.0833 21.8724C38.2242 21.8882 38.361 21.8964 38.4978 21.8964C40.807 21.8938 42.6784 20.0224 42.6811 17.7131C42.6794 16.8565 42.4126 16.0214 41.9174 15.3225C42.4197 14.4212 42.6826 13.4062 42.6811 12.3744ZM40.5702 15.8366C41.0406 16.3487 41.3031 17.0178 41.3064 17.7131C41.3048 19.2636 40.0483 20.5202 38.4978 20.5217C38.2881 20.5217 38.0668 20.4901 37.8008 20.422L37.1801 20.2632L36.9787 20.8729C35.0591 26.7004 29.6131 30.6354 23.4775 30.628C19.6269 30.628 16.0203 29.111 13.3217 26.3567L12.9574 25.9855L12.5003 26.2351C11.4526 26.8059 10.2786 27.105 9.08552 27.1053C5.15311 27.1053 1.95412 23.9063 1.95412 19.9739C1.95412 16.0415 5.15242 12.8425 9.08139 12.8425L9.70002 12.8473L9.84574 12.3558C11.6233 6.36957 17.2287 2.18834 23.4768 2.18834C27.8602 2.18834 31.9342 4.16863 34.6527 7.62263L34.9352 7.98075L35.3751 7.85977C35.7798 7.7469 36.1977 7.68887 36.6179 7.68724C39.203 7.68724 41.3057 9.79058 41.3057 12.3751C41.3071 13.3072 41.0294 14.2183 40.5083 14.9912L40.208 15.438L40.5702 15.8366Z" fill="white" stroke="white"/>
</svg>
