<svg width="65" height="49" viewBox="0 0 65 49" fill="none" xmlns="http://www.w3.org/2000/svg">
<path d="M23.7896 37.4008L23.8342 37.0753C23.3971 37.114 22.9567 37.1389 22.5117 37.1389C21.432 37.1389 20.374 37.0136 19.3443 36.7917L19.316 36.9952L17.1816 40.525L19.6862 42.2603L17.1823 49.0061L24.3133 42.6941L20.7475 40.525L23.7896 37.4008Z" fill="white"/>
<path d="M45.2103 9.30588C45.2103 4.62361 41.4003 0.812949 36.718 0.812949C35.2923 0.813566 33.8899 1.17361 32.6402 1.8598C31.6108 1.18064 30.4054 0.816802 29.1722 0.812947C26.615 0.806569 24.3116 2.35753 23.3557 4.72928C22.9018 4.62616 22.4377 4.57421 21.9722 4.57439C18.5107 4.57439 15.6944 7.39136 15.6944 10.8529C15.6944 11.309 15.7456 11.7533 15.8394 12.1813C14.1017 13.2711 12.8009 14.9356 12.1633 16.8852C11.3499 16.6424 10.5056 16.5191 9.65678 16.519C4.78811 16.519 0.827148 20.4799 0.827148 25.3486C0.827148 30.2166 4.78811 34.1763 9.65678 34.1763C10.999 34.1763 12.3156 33.8698 13.518 33.283C14.2706 35.2813 15.7234 36.9383 17.6063 37.9456L18.0552 37.2033L18.1543 36.4872C16.4411 35.5068 15.2003 33.8718 14.7171 31.9579C14.6293 31.6165 14.322 31.3775 13.9695 31.3764C13.8251 31.3764 13.6814 31.4177 13.556 31.4978C12.3914 32.2407 11.0388 32.6355 9.65744 32.6359C5.63872 32.6359 2.37018 29.368 2.37018 25.3486C2.37018 21.3292 5.63806 18.0607 9.65744 18.0607C10.5986 18.0607 11.5188 18.2412 12.397 18.5982C12.6067 18.6832 12.8432 18.6719 13.0439 18.5673C13.2446 18.4627 13.3893 18.2754 13.4399 18.0548C14.1799 14.7288 17.1354 12.3665 20.5427 12.3775C22.2426 12.3775 23.8998 12.9787 25.2059 14.0676C25.4658 14.2855 25.8386 14.3065 26.1222 14.1201C27.8513 12.9824 29.876 12.3766 31.9458 12.3775C34.8094 12.3775 37.4078 13.5209 39.321 15.3691C39.7923 15.822 40.2176 16.3195 40.5982 16.8537C41.8865 18.649 42.5793 20.8031 42.579 23.0127C42.579 28.8764 37.8082 33.646 31.9458 33.646C30.9981 33.646 30.0319 33.5114 29.0783 33.2423C28.7307 33.1465 28.3629 33.3025 28.1903 33.619C27.5315 34.8371 26.5391 35.8421 25.3293 36.5161L25.076 38.3545C26.7953 37.6611 28.2529 36.4443 29.2424 34.8766C30.1435 35.082 31.0499 35.1883 31.9458 35.1883C38.6594 35.1883 44.1214 29.727 44.1214 23.0127C44.1214 20.4117 43.2944 18.0029 41.8984 16.0234C43.9081 14.4673 45.2103 12.0395 45.2103 9.30588ZM40.6914 14.5631C38.475 12.2692 35.3758 10.8364 31.9438 10.8364C29.7543 10.8364 27.6239 11.4226 25.7461 12.5363C23.3981 10.8235 20.3586 10.373 17.6148 11.3313C17.5968 11.1725 17.5873 11.0127 17.5866 10.8529C17.5891 8.43227 19.5509 6.47073 21.9715 6.46856C22.536 6.46856 23.0912 6.57751 23.6189 6.79148C23.8764 6.89721 24.1674 6.88351 24.4137 6.75406C24.6605 6.62542 24.8377 6.39505 24.9001 6.12333C25.3425 4.121 27.1216 2.69837 29.1722 2.70712C30.1972 2.70818 31.1896 3.06784 31.9773 3.72378C32.2977 3.9917 32.7556 4.01835 33.1049 3.78941C34.1776 3.08339 35.4338 2.70734 36.718 2.70778C40.356 2.70778 43.3174 5.66849 43.3174 9.30654C43.3168 11.4527 42.2824 13.3581 40.6914 14.5631Z" fill="white"/>
</svg>
