<svg width="47" height="28" viewBox="0 0 47 28" fill="none" xmlns="http://www.w3.org/2000/svg">
<path d="M1.65105 10.7579H23.4221C23.5581 10.7699 23.6881 10.7989 23.8251 10.7989C26.5826 10.7989 28.8181 8.56348 28.8181 5.80593C28.8181 3.04837 26.5826 0.812927 23.8251 0.812927C21.0675 0.812927 18.8321 3.04837 18.8321 5.80593C18.8321 6.76393 19.1151 7.64893 19.5831 8.40893H0.477051V10.7349H1.54005C1.57805 10.7389 1.61105 10.7579 1.65105 10.7579Z" fill="white"/>
<path d="M30.3841 17.234C30.3511 17.232 30.3211 17.213 30.2861 17.213H2.38507C2.33307 17.213 2.28807 17.236 2.23707 17.243V17.213H0.476074V19.574H2.23707V19.533C2.28807 19.54 2.33207 19.563 2.38507 19.563H25.9681C25.4663 20.3533 25.1989 21.2698 25.1971 22.2059C25.1971 24.9629 27.4321 27.1979 30.1891 27.1979C32.9461 27.1979 35.1811 24.963 35.1811 22.2059C35.1811 19.517 33.0481 17.338 30.3841 17.234Z" fill="white"/>
<path d="M41.3001 5.22791C38.5427 5.22791 36.3075 7.46351 36.3081 10.2209C36.3081 11.1949 36.5971 12.0959 37.0791 12.8639H1.74907C1.71408 12.8639 1.68407 12.8809 1.65007 12.8839V12.8529H0.476074V15.2139H1.65007V15.1939C1.68407 15.1969 1.71407 15.2139 1.74907 15.2139H41.3971C41.4321 15.2139 41.4601 15.1969 41.4951 15.1939C44.1591 15.0889 46.2921 12.9109 46.2921 10.2209C46.2921 7.46252 44.0575 5.22736 41.3001 5.22791Z" fill="white"/>
<path d="M0.477051 4.31995H13.0471V6.31995H0.477053L0.477051 4.31995Z" fill="white"/>
<path d="M0.727051 21.2059H19.7551V23.2059H0.727051V21.2059Z" fill="white"/>
</svg>
